:version 1.10
:name ASF
:units
  mass 1
  length 1
  angle deg
:documentation
  ASF file generated by Kaydara
:root
  axis xyz
  order  tx ty tz rx ry rz
  position 0 0 0
  orientation 0 0 0
:bonedata
  begin
    id 1
    name RightUpLegDummy
    direction -1 2.30186e-007 8.31532e-007
    length 4.46685
    axis 0 0 0 xyz
  end
  begin
    id 2
    name RightUpLeg
    direction -2.30187e-007 -1 1.24343e-010
    length 16.4045
    axis -3.49089 -0.000906625 0.000286804 xyz
    dof rx ry rz
  end
  begin
    id 3
    name RightLeg
    direction -2.30181e-007 -1 -4.17157e-009
    length 17.5097
    axis 3.68512 0.0193738 -0.131023 xyz
    dof rx ry rz
  end
  begin
    id 4
    name RightFoot
    direction 8.31421e-007 -4.51202e-011 1
    length 6.49508
    axis 4.81691e-005 -0.120479 -0.188788 xyz
    dof rx ry rz
  end
  begin
    id 5
    name RightToes
    direction 0.00124746 -0.014064 0.9999
    length 3.85082
    axis 0.000481921 0.542163 -0.142578 xyz
    dof rx ry rz
  end
  begin
    id 6
    name SpineDummy
    direction 0.0717043 0.9409 -0.331007
    length 10.0032
    axis 0 0 0 xyz
  end
  begin
    id 7
    name Spine
    direction 2.30186e-007 1 4.58806e-011
    length 9.84055
    axis -0.001389 0.000121418 2.40972e-006 xyz
    dof rx ry rz
  end
  begin
    id 8
    name Spine1
    direction 0 0 0
    length 0
    axis -0.001389 0.000121451 1.30017e-006 xyz
    dof rx ry rz
  end
  begin
    id 9
    name HEadDummy
    direction -0.00347485 0.950688 -0.310128
    length 8.00997
    axis -0.001389 0.000121451 1.30017e-006 xyz
  end
  begin
    id 10
    name HEad
    direction -0.0222688 0.980941 0.193023
    length 5.12695
    axis -0.001389 0.000121451 1.30017e-006 xyz
    dof rx ry rz
  end
  begin
    id 11
    name LeftShoulder1Dummy
    direction 0.988871 0.146793 -0.0242004
    length 3.5792
    axis -0.001389 0.000121451 1.30017e-006 xyz
  end
  begin
    id 12
    name LeftShoulder1
    direction 0.993832 0.108932 0.020779
    length 4.16823
    axis -0.001389 0.000121451 1.30017e-006 xyz
    dof rx ry rz
  end
  begin
    id 13
    name LeftArm
    direction 1 3.44807e-006 -8.31404e-007
    length 9.91437
    axis -23.1894 0.134784 0.967509 xyz
    dof rx ry rz
  end
  begin
    id 14
    name LeftForeArm
    direction 1 3.44842e-006 -8.31581e-007
    length 9.08575
    axis -9.91835 -0.06569 -0.177793 xyz
    dof rx ry rz
  end
  begin
    id 15
    name LeftHand
    direction 0.992938 -0.0411636 0.11126
    length 5.32135
    axis -0.00960232 -0.00340091 0.185173 xyz
    dof rx ry rz
  end
  begin
    id 16
    name RightShoulderDummy
    direction -0.988871 0.146793 -0.0241962
    length 3.5792
    axis -0.001389 0.000121451 1.30017e-006 xyz
  end
  begin
    id 17
    name RightShoulder
    direction -0.993832 0.108933 0.0207785
    length 4.16823
    axis 0.215806 0.000203643 -0.0068026 xyz
    dof rx ry rz
  end
  begin
    id 18
    name RightArm
    direction -1 3.90912e-006 8.31284e-007
    length 9.91437
    axis -23.2009 -0.134239 -0.964101 xyz
    dof rx ry rz
  end
  begin
    id 19
    name RightForeArm
    direction -1 3.90882e-006 8.31502e-007
    length 9.08575
    axis -9.92322 0.0658061 0.178867 xyz
    dof rx ry rz
  end
  begin
    id 20
    name RightHand
    direction -0.992843 -0.0414603 0.112003
    length 5.28593
    axis -0.00960638 0.00330671 -0.185228 xyz
    dof rx ry rz
  end
  begin
    id 21
    name LeftUpLegDummy
    direction 1 -2.30186e-007 -8.31532e-007
    length 4.46685
    axis 0 0 0 xyz
  end
  begin
    id 22
    name LeftUpLeg
    direction -2.30187e-007 -1 6.00931e-010
    length 16.4045
    axis -3.48766 0.00143442 -0.000524262 xyz
    dof rx ry rz
  end
  begin
    id 23
    name LeftLeg
    direction -2.30187e-007 -1 1.6669e-009
    length 17.5097
    axis 3.68178 -0.00654042 -0.000285133 xyz
    dof rx ry rz
  end
  begin
    id 24
    name LeftFoot
    direction 8.31532e-007 -4.54478e-011 1
    length 6.49508
    axis 1.87233e-006 4.66016e-005 -8.6538e-006 xyz
    dof rx ry rz
  end
  begin
    id 25
    name LeftToes
    direction 0.00818058 -0.00485161 0.999955
    length 3.85048
    axis 1.06247e-005 4.65869e-005 -8.65513e-006 xyz
    dof rx ry rz
  end
:hierarchy
  begin
    root RightUpLegDummy SpineDummy LeftUpLegDummy
    RightUpLegDummy RightUpLeg
    RightUpLeg RightLeg
    RightLeg RightFoot
    RightFoot RightToes
    SpineDummy Spine
    Spine Spine1
    Spine1 HEadDummy LeftShoulder1Dummy RightShoulderDummy
    HEadDummy HEad
    LeftShoulder1Dummy LeftShoulder1
    LeftShoulder1 LeftArm
    LeftArm LeftForeArm
    LeftForeArm LeftHand
    RightShoulderDummy RightShoulder
    RightShoulder RightArm
    RightArm RightForeArm
    RightForeArm RightHand
    LeftUpLegDummy LeftUpLeg
    LeftUpLeg LeftLeg
    LeftLeg LeftFoot
    LeftFoot LeftToes
  end

:SAMPLES-PER-SECOND 30
:FULLY-SPECIFIED
:DEGREES
104
root  -6.80993 31.2723 3.54913 -171.35 -45.1794 -175.09
RightUpLeg  -5.57845 -30.6309 -8.94068
RightLeg  21.5959 -15.5532 -4.94918
RightFoot  0.445412 -0.00168653 0.810171
RightToes  -41.2637 -0.228656 -0.322149
Spine  9.46137 4.17962 -0.958508
Spine1  17.0091 11.1816 -4.85878
HEad  28.5756 20.2146 -4.71493
LeftShoulder1  0 -2.42657e-020 -4.95415e-022
LeftArm  -39.7354 -8.19282 -82.2364
LeftForeArm  41.6538 -26.0448 -4.92351
LeftHand  0.498713 -9.84895 -6.15755
RightShoulder  0 2.42657e-020 1.07489e-018
RightArm  3.2826 17.79 89.3725
RightForeArm  45.6257 22.6729 4.20086
RightHand  0.1544 24.5969 1.07851
LeftUpLeg  -43.3907 18.8085 9.84334
LeftLeg  22.0777 7.17177 2.37496
LeftFoot  -4.18682 -0.0217034 -0.593752
LeftToes  -14.4439 1.18758e-006 1.19596e-007
105
root  -7.84156 30.7798 3.85727 -169.47 -47.1429 -174.343
RightUpLeg  -8.33888 -30.5928 -9.01657
RightLeg  25.0559 -17.0397 -6.53803
RightFoot  -0.0361457 0.000233547 1.13995
RightToes  -41.2828 -0.228811 -0.322253
Spine  9.88815 4.19217 -1.34261
Spine1  17.4002 11.5648 -5.74123
HEad  26.2411 19.0814 -4.69683
LeftShoulder1  0 -2.42657e-020 -4.95415e-022
LeftArm  -38.4849 -11.2183 -80.6798
LeftForeArm  40.9284 -25.939 -4.90124
LeftHand  0.46181 -9.76983 -5.77354
RightShoulder  0 2.42657e-020 1.07489e-018
RightArm  3.27836 20.6604 90.3512
RightForeArm  45.0954 22.2891 4.12222
RightHand  0.127574 24.4531 0.958979
LeftUpLeg  -48.8869 16.7378 8.78216
LeftLeg  26.4024 4.35085 1.81628
LeftFoot  3.53046 -0.0137641 0.446603
LeftToes  -21.7635 1.18758e-006 1.19596e-007
106
root  -8.84568 30.3042 4.24197 -166.463 -50.2257 -174.668
RightUpLeg  -11.5948 -31.1368 -9.43442
RightLeg  29.4275 -19.1133 -8.96916
RightFoot  -0.67102 0.00746022 1.6532
RightToes  -39.0195 -0.210698 -0.309516
Spine  10.6799 3.79039 -1.95571
Spine1  18.2026 11.1228 -6.7732
HEad  23.4992 17.0913 -3.89091
LeftShoulder1  0 -2.42657e-020 -4.95415e-022
LeftArm  -36.6369 -15.5507 -78.8814
LeftForeArm  40.2314 -25.1938 -4.74
LeftHand  0.399428 -9.4751 -5.19056
RightShoulder  0 2.42657e-020 1.07489e-018
RightArm  1.12836 23.9934 91.8505
RightForeArm  45.663 21.443 3.9478
RightHand  0.0586186 24.3445 0.641931
LeftUpLeg  -56.7547 14.829 5.8182
LeftLeg  33.8978 -0.793204 -0.466232
LeftFoot  5.97131 -0.012914 0.247591
LeftToes  -22.3365 1.18758e-006 1.19596e-007
107
root  -9.95733 29.8055 4.54723 -164.287 -53.2011 -175.468
RightUpLeg  -13.1265 -31.3022 -10.9043
RightLeg  33.9368 -20.6219 -11.606
RightFoot  -1.36232 0.0227947 2.29583
RightToes  -34.9239 -0.179256 -0.28469
Spine  12.3619 3.46799 -2.66355
Spine1  20.617 10.5942 -7.14524
HEad  20.7175 13.8602 -3.11822
LeftShoulder1  0 -2.42657e-020 -4.95415e-022
LeftArm  -34.377 -21.8329 -77.5313
LeftForeArm  40.5399 -23.3999 -4.35766
LeftHand  0.349314 -9.35104 -4.64255
RightShoulder  0 2.42657e-020 1.07489e-018
RightArm  -3.02052 28.2586 93.1486
RightForeArm  47.1861 20.1627 3.68672
RightHand  -0.117918 24.2251 -0.17948
LeftUpLeg  -62.4418 12.4824 3.43518
LeftLeg  41.3645 -0.883465 -0.687921
LeftFoot  5.58138 -0.0184447 0.37838
LeftToes  -20.6753 1.18758e-006 1.19596e-007
108
root  -11.0047 29.3257 4.79267 -162.861 -54.2556 -175.466
RightUpLeg  -15.2555 -28.8847 -11.6647
RightLeg  38.7145 -22.3878 -14.9475
RightFoot  -1.18756 0.0234241 2.63899
RightToes  -30.6832 -0.148654 -0.256687
Spine  14.271 3.74558 -3.45322
Spine1  23.4787 11.1872 -7.28018
HEad  18.1236 10.7917 -2.24958
LeftShoulder1  0 -2.42657e-020 -4.95415e-022
LeftArm  -34.4525 -29.0463 -77.0961
LeftForeArm  42.6073 -20.9955 -3.8595
LeftHand  0.31634 -9.62702 -4.12815
RightShoulder  0 2.42657e-020 1.07489e-018
RightArm  -5.52189 33.0986 93.6651
RightForeArm  47.33 19.0935 3.47382
RightHand  -0.226283 24.0762 -0.691249
LeftUpLeg  -66.6664 13.2017 0.580042
LeftLeg  46.8746 -2.80775 -2.63978
LeftFoot  6.60004 -0.0149317 0.258951
LeftToes  -22.1985 1.18758e-006 1.19596e-007
109
root  -11.899 28.8962 4.99212 -161.669 -55.5243 -174.135
RightUpLeg  -18.0447 -28.0549 -10.9732
RightLeg  42.3628 -23.2273 -17.5217
RightFoot  -0.630944 0.0127366 2.69339
RightToes  -26.7095 -0.121931 -0.228459
Spine  15.5693 4.00273 -3.90474
Spine1  25.2766 11.7752 -7.15823
HEad  16.8172 8.0668 -0.701777
LeftShoulder1  0 -2.42657e-020 -4.95415e-022
LeftArm  -34.9926 -35.3334 -77.1622
LeftForeArm  43.1429 -18.9216 -3.44462
LeftHand  0.25377 -9.25717 -3.50629
RightShoulder  0 2.42657e-020 1.07489e-018
RightArm  -7.69888 37.8737 94.2669
RightForeArm  46.7063 17.1519 3.09579
RightHand  -0.222667 24.0252 -0.676567
LeftUpLeg  -71.7564 13.1539 -1.10006
LeftLeg  52.5325 -3.63844 -4.16157
LeftFoot  4.44069 -0.0165649 0.42723
LeftToes  -17.1551 1.18758e-006 1.19596e-007
110
root  -12.7375 28.488 5.1215 -160.447 -57.2971 -173.035
RightUpLeg  -19.9579 -28.4146 -10.4921
RightLeg  44.2416 -20.9214 -16.9996
RightFoot  -2.25979 0.0649973 3.6733
RightToes  -22.773 -0.0974501 -0.198735
Spine  16.8715 3.95946 -4.17642
Spine1  27.0349 11.8119 -6.92438
HEad  15.2137 5.587 0.815978
LeftShoulder1  0 -2.42657e-020 -4.95415e-022
LeftArm  -36.4874 -40.8275 -77.7006
LeftForeArm  42.4516 -17.342 -3.13729
LeftHand  0.201806 -8.73496 -3.01418
RightShoulder  0 2.42657e-020 1.07489e-018
RightArm  -10.5111 42.602 95.1272
RightForeArm  47.9817 15.0691 2.69627
RightHand  -0.0323825 24.3678 0.220088
LeftUpLeg  -76.1021 12.1678 -2.30136
LeftLeg  57.3523 -3.82713 -5.19583
LeftFoot  1.80994 -0.0127282 0.805768
LeftToes  -12.0751 1.18758e-006 1.19596e-007
111
root  -13.4964 28.1036 5.20668 -159.406 -58.8054 -171.951
RightUpLeg  -21.5517 -27.1138 -9.90305
RightLeg  44.9038 -16.4842 -13.9754
RightFoot  -5.76241 0.221874 4.78443
RightToes  -25.6051 -0.114857 -0.22029
Spine  18.2851 3.98846 -4.5221
Spine1  29.0545 11.8243 -6.50205
HEad  12.3489 2.92045 2.45003
LeftShoulder1  0 -2.42657e-020 -4.95415e-022
LeftArm  -36.4893 -46.2559 -78.3638
LeftForeArm  40.73 -16.2306 -2.9259
LeftHand  0.156244 -7.97054 -2.61461
RightShoulder  0 2.42657e-020 1.07489e-018
RightArm  -14.6158 47.4323 95.9264
RightForeArm  50.7 13.7288 2.4403
RightHand  -0.0674016 24.3178 0.0571937
LeftUpLeg  -79.8144 11.1908 -3.12369
LeftLeg  61.5578 -3.74402 -5.94843
LeftFoot  -0.659701 0.0070027 1.21631
LeftToes  -10.3478 1.18758e-006 1.19596e-007
112
root  -14.1533 27.7376 5.24208 -158.951 -60.0646 -170.096
RightUpLeg  -23.3082 -24.1844 -8.62809
RightLeg  45.5435 -13.6705 -11.9776
RightFoot  -9.5637 0.43241 5.54355
RightToes  -27.3456 -0.126076 -0.2331
Spine  19.6186 4.02338 -4.63657
Spine1  31.0183 11.8124 -5.91042
HEad  8.99919 0.497755 3.9974
LeftShoulder1  0 -2.42657e-020 -4.95415e-022
LeftArm  -35.675 -51.2741 -78.9797
LeftForeArm  39.4449 -15.7118 -2.82857
LeftHand  0.135965 -7.32621 -2.49585
RightShoulder  0 2.42657e-020 1.07489e-018
RightArm  -18.3255 52.4971 96.9825
RightForeArm  52.2191 12.4352 2.19781
RightHand  -0.278889 24.2018 -0.930979
LeftUpLeg  -83.3596 10.1859 -3.16866
LeftLeg  65.2498 -3.20322 -5.9052
LeftFoot  -3.22502 0.0451989 1.60547
LeftToes  -6.83689 1.18758e-006 1.19596e-007
113
root  -14.7751 27.3654 5.27892 -157.631 -61.7546 -169.137
RightUpLeg  -24.9283 -22.3725 -7.72099
RightLeg  46.5904 -13.7442 -12.4763
RightFoot  -11.5317 0.59477 6.26314
RightToes  -26.8674 -0.122955 -0.229615
Spine  20.8889 3.73912 -4.70219
Spine1  32.7864 11.1817 -5.39634
HEad  5.92373 -1.71702 5.61984
LeftShoulder1  0 -2.42657e-020 -4.95415e-022
LeftArm  -34.1472 -55.7958 -79.4584
LeftForeArm  38.9443 -15.4556 -2.78052
LeftHand  0.12663 -7.24711 -2.37163
RightShoulder  0 2.42657e-020 1.07489e-018
RightArm  -21.4362 57.3203 98.3788
RightForeArm  52.2761 11.2026 1.97158
RightHand  -0.408679 23.5415 -1.59146
LeftUpLeg  -86.7794 8.66589 -3.55746
LeftLeg  68.5001 -2.90992 -6.1772
LeftFoot  -5.2763 0.0910224 1.97524
LeftToes  -4.41133 1.18758e-006 1.19596e-007
114
root  -15.3332 26.9813 5.32069 -155.936 -63.1875 -168.383
RightUpLeg  -26.8274 -21.126 -6.92651
RightLeg  47.8885 -14.9332 -14.0941
RightFoot  -12.3596 0.72181 7.03679
RightToes  -25.6463 -0.115119 -0.220598
Spine  21.9468 3.46175 -4.76081
Spine1  34.2363 10.5269 -4.93302
HEad  2.5626 -3.72671 7.53051
LeftShoulder1  0 -2.42657e-020 -4.95415e-022
LeftArm  -31.5303 -60.0871 -79.6304
LeftForeArm  37.9215 -15.2014 -2.73351
LeftHand  0.13792 -7.34217 -2.52169
RightShoulder  0 2.42657e-020 1.07489e-018
RightArm  -23.9589 61.5642 99.9724
RightForeArm  50.7827 10.6675 1.87673
RightHand  -0.357086 22.6279 -1.41502
LeftUpLeg  -90.289 7.08041 -3.70862
LeftLeg  71.5526 -2.54148 -6.24011
LeftFoot  -7.04173 0.139899 2.27343
LeftToes  -2.85089 1.18758e-006 1.19596e-007
